<?xml version="1.0" encoding="utf-8"?>
<!-- Generator: Adobe Illustrator 17.1.0, SVG Export Plug-In . SVG Version: 6.00 Build 0)  -->
<!DOCTYPE svg PUBLIC "-//W3C//DTD SVG 1.1//EN" "http://www.w3.org/Graphics/SVG/1.1/DTD/svg11.dtd" [
	<!ENTITY ns_flows "http://ns.adobe.com/Flows/1.0/">
	<!ENTITY ns_extend "http://ns.adobe.com/Extensibility/1.0/">
	<!ENTITY ns_ai "http://ns.adobe.com/AdobeIllustrator/10.0/">
	<!ENTITY ns_graphs "http://ns.adobe.com/Graphs/1.0/">
]>
<svg version="1.1" id="Layer_1" xmlns:x="&ns_extend;" xmlns:i="&ns_ai;" xmlns:graph="&ns_graphs;"
	 xmlns="http://www.w3.org/2000/svg" xmlns:xlink="http://www.w3.org/1999/xlink" xmlns:a="http://ns.adobe.com/AdobeSVGViewerExtensions/3.0/"
	 x="0px" y="0px" viewBox="0 0 815 315" enable-background="new 0 0 815 315" xml:space="preserve">
<rect x="108.1" y="43.9" fill="#231F20" width="11.1" height="12.3"/>
<rect x="108.1" y="54.7" fill="#231F20" width="11.1" height="13.7"/>
<rect x="108.1" y="68.4" fill="#231F20" width="11.1" height="12.3"/>
<rect x="108.1" y="80.6" fill="#231F20" width="11.1" height="12.3"/>
<rect x="118.8" y="32" fill="#231F20" width="11.1" height="12.3"/>
<rect x="108.1" y="92.7" fill="#231F20" width="11.1" height="12.3"/>
<rect x="108.1" y="104.9" fill="#231F20" width="11.1" height="12.3"/>
<rect x="108.1" y="116.9" fill="#231F20" width="11.1" height="15.2"/>
<rect x="108.1" y="129.4" fill="#231F20" width="11.1" height="12.3"/>
<rect x="119.2" y="129.4" fill="#231F20" width="11.1" height="12.3"/>
<rect x="119.2" y="141.6" fill="#231F20" width="11.1" height="12.3"/>
<rect x="119.2" y="153.9" fill="#231F20" width="11.1" height="12.3"/>
<rect x="161.8" y="213.2" fill="#231F20" width="23.9" height="12.3"/>
<rect x="173" y="200.9" fill="#231F20" width="11.1" height="12.3"/>
<rect x="183.6" y="189.1" fill="#231F20" width="11.1" height="12.3"/>
<rect x="183.6" y="177.8" fill="#231F20" width="11.1" height="12.3"/>
<rect x="261.8" y="177.8" fill="#231F20" width="11.1" height="12.3"/>
<rect x="272.9" y="166.1" fill="#231F20" width="423.2" height="12.3"/>
<rect x="224.6" y="189.6" fill="#231F20" width="37.2" height="12.3"/>
<rect x="206.5" y="200.9" fill="#231F20" width="18.6" height="12.3"/>
<rect x="684.1" y="153.8" fill="#231F20" width="11.1" height="13.9"/>
<rect x="684.1" y="141.6" fill="#231F20" width="11.1" height="12.3"/>
<rect x="695.1" y="141.6" fill="#231F20" width="12.3" height="12.3"/>
<rect x="694.4" y="47.5" fill="#231F20" width="12.7" height="12.3"/>
<rect x="664.7" y="21.2" fill="#231F20" width="25.4" height="12.3"/>
<rect x="685" y="21.2" fill="#231F20" width="11.1" height="38.7"/>
<rect x="706.7" y="141.6" fill="#231F20" width="11.1" height="12.3"/>
<rect x="706.7" y="47.5" fill="#231F20" width="11.1" height="94.1"/>
<rect x="195.1" y="213.2" fill="#231F20" width="11.1" height="12.3"/>
<rect x="184.1" y="213.2" fill="#231F20" width="11.1" height="12.3"/>
<rect x="173" y="213.2" fill="#231F20" width="11.1" height="12.3"/>
<rect x="176.1" y="166.1" fill="#231F20" width="18.6" height="12.3"/>
<rect x="129.6" y="153.9" fill="#231F20" width="46.4" height="12.3"/>
<rect x="119.2" y="43.9" fill="#231F20" width="11.1" height="12.3"/>
<rect x="140.7" y="9" fill="#231F20" width="540" height="12.3"/>
<rect x="129.6" y="21.2" fill="#231F20" width="11.1" height="22.7"/>
<g>
	<path fill="#231F20" d="M223.3,51l-9.2,5.4c-1.7-3-3.3-4.9-4.9-5.8c-1.6-1-3.7-1.6-6.3-1.6c-3.1,0-5.7,0.9-7.8,2.7
		c-2.1,1.7-3.1,3.9-3.1,6.6c0,3.7,2.7,6.6,8.2,8.8l7.5,3.1c6.1,2.5,10.5,5.5,13.3,9c2.8,3.5,4.2,7.9,4.2,13c0,6.9-2.3,12.6-6.9,17.1
		c-4.6,4.5-10.4,6.8-17.2,6.8c-6.5,0-11.9-1.9-16.1-5.8c-4.2-3.9-6.8-9.3-7.8-16.3l11.5-2.5c0.5,4.4,1.4,7.4,2.7,9.1
		c2.3,3.2,5.7,4.9,10.2,4.9c3.5,0,6.5-1.2,8.8-3.5c2.3-2.4,3.5-5.4,3.5-9c0-1.5-0.2-2.8-0.6-4c-0.4-1.2-1-2.3-1.9-3.3
		c-0.9-1-2-2-3.3-2.9c-1.4-0.9-3-1.7-4.9-2.5l-7.2-3c-10.3-4.3-15.4-10.7-15.4-19c0-5.6,2.2-10.3,6.5-14.1c4.3-3.8,9.7-5.7,16.1-5.7
		C211.7,38.4,218.4,42.6,223.3,51z"/>
	<path fill="#231F20" d="M278.3,93.7h-33.9c0.3,3.9,1.6,7,3.8,9.3c2.2,2.3,5.1,3.4,8.6,3.4c2.7,0,5-0.6,6.7-1.9
		c1.7-1.3,3.7-3.7,6-7.2l9.2,5.1c-1.4,2.4-2.9,4.5-4.5,6.2c-1.6,1.7-3.3,3.2-5.1,4.3c-1.8,1.1-3.8,1.9-5.9,2.5
		c-2.1,0.5-4.4,0.8-6.8,0.8c-7.1,0-12.7-2.3-17-6.8c-4.3-4.6-6.4-10.6-6.4-18.1c0-7.5,2.1-13.5,6.2-18.1c4.2-4.6,9.7-6.8,16.6-6.8
		c7,0,12.5,2.2,16.5,6.6c4,4.4,6,10.5,6,18.3L278.3,93.7z M267.1,84.8c-1.5-5.8-5.2-8.7-11-8.7c-1.3,0-2.6,0.2-3.7,0.6
		c-1.2,0.4-2.2,1-3.2,1.7c-1,0.8-1.8,1.7-2.5,2.7s-1.2,2.3-1.6,3.6H267.1z"/>
	<path fill="#231F20" d="M286.5,90.8c0-6.8,2.4-12.6,7.3-17.4c4.9-4.8,10.8-7.2,17.9-7.2c7.1,0,13,2.4,18,7.2
		c4.9,4.8,7.3,10.7,7.3,17.8c0,7.1-2.4,13-7.3,17.8c-4.9,4.8-11,7.1-18.1,7.1c-7.1,0-13-2.4-17.8-7.3
		C288.9,104.1,286.5,98.1,286.5,90.8z M297.7,91c0,4.7,1.3,8.5,3.8,11.2c2.6,2.8,6,4.2,10.2,4.2c4.3,0,7.7-1.4,10.2-4.1
		c2.6-2.7,3.8-6.4,3.8-11c0-4.6-1.3-8.3-3.8-11c-2.6-2.8-6-4.2-10.2-4.2c-4.2,0-7.6,1.4-10.1,4.2C299,83,297.7,86.6,297.7,91z"/>
	<path fill="#231F20" d="M357.9,67.5v27.1c0,7.8,3.1,11.7,9.3,11.7c6.2,0,9.3-3.9,9.3-11.7V67.5h10.9v27.4c0,3.8-0.5,7.1-1.4,9.8
		c-0.9,2.5-2.5,4.7-4.7,6.6c-3.7,3.2-8.4,4.8-14.1,4.8c-5.7,0-10.3-1.6-14-4.8c-2.3-2-3.9-4.2-4.8-6.6c-0.9-2.2-1.4-5.5-1.4-9.8
		V67.5H357.9z"/>
	<path fill="#231F20" d="M410.6,32.8v82h-10.9v-82H410.6z"/>
	<path fill="#231F20" d="M474.9,50.5v64.3h-11.3V50.5h-17.2V39.9h45.7v10.6H474.9z"/>
	<path fill="#231F20" d="M537.5,93.7h-33.9c0.3,3.9,1.6,7,3.8,9.3c2.2,2.3,5.1,3.4,8.6,3.4c2.7,0,5-0.6,6.7-1.9
		c1.7-1.3,3.7-3.7,6-7.2l9.2,5.1c-1.4,2.4-2.9,4.5-4.5,6.2c-1.6,1.7-3.3,3.2-5.1,4.3s-3.8,1.9-5.9,2.5c-2.1,0.5-4.4,0.8-6.8,0.8
		c-7.1,0-12.7-2.3-17-6.8c-4.3-4.6-6.4-10.6-6.4-18.1c0-7.5,2.1-13.5,6.2-18.1c4.2-4.6,9.7-6.8,16.6-6.8c7,0,12.5,2.2,16.5,6.6
		c4,4.4,6,10.5,6,18.3L537.5,93.7z M526.3,84.8c-1.5-5.8-5.2-8.7-11-8.7c-1.3,0-2.6,0.2-3.7,0.6c-1.2,0.4-2.2,1-3.2,1.7
		c-1,0.8-1.8,1.7-2.5,2.7c-0.7,1.1-1.2,2.3-1.6,3.6H526.3z"/>
	<path fill="#231F20" d="M584.8,69.6v14.5c-2.5-3-4.7-5.1-6.7-6.3c-1.9-1.2-4.2-1.7-6.8-1.7c-4.1,0-7.5,1.4-10.2,4.3
		c-2.7,2.9-4.1,6.5-4.1,10.8c0,4.4,1.3,8.1,3.9,10.9c2.7,2.8,6,4.3,10.1,4.3c2.6,0,4.9-0.6,6.9-1.7c1.9-1.1,4.2-3.2,6.8-6.4v14.4
		c-4.4,2.3-8.9,3.4-13.3,3.4c-7.3,0-13.4-2.4-18.3-7.1c-4.9-4.8-7.4-10.7-7.4-17.7s2.5-13,7.5-17.9c5-4.9,11.1-7.3,18.3-7.3
		C576.2,66.2,580.6,67.3,584.8,69.6z"/>
	<path fill="#231F20" d="M596.4,32.8h10.9v38.6c3.9-3.5,8.2-5.2,12.9-5.2c5.3,0,9.6,1.7,12.8,5.2c2.7,3,4.1,7.8,4.1,14.4v29h-10.9
		v-28c0-3.8-0.7-6.5-2-8.2c-1.3-1.7-3.5-2.5-6.5-2.5c-3.8,0-6.5,1.2-8.1,3.5c-1.5,2.4-2.3,6.5-2.3,12.3v22.9h-10.9V32.8z"/>
</g>
<g>
	<path fill="#231F20" d="M375.5,139.1c3.8,0.9,5.6,2.9,5.6,4.7c0,7.5-13.1,8.7-18.5,8.7c-1.5,0-6,0-6-2.2c0-0.8,1.3-2.8,1.9-3.3
		c0.5-0.4,2.7-1.1,3.2-1.1c0.2,0,0.3,0,0.3,0.3c0,0.4-0.4,0.6-0.6,0.7c-0.2,0.2-0.4,0.3-0.6,0.6v0.1c13.4,0.5,17.1-3.4,17.1-4
		c0-1.9-10.4-3.4-12.2-3.7c-1.9-0.3-3.8-0.9-3.8-3.2c0-1.2,0.6-4,1.2-5c1.2-1.9,8-5.5,16.2-5.5c1.6,0,3.2,0.2,4.7,0.5
		c0.9,0.2,1,0.5,1,1.2c0,2.8-0.9,3.4-3.2,4.3c-1.6,0.6-1.9,0.8-3.4,1.8c-0.3,0.1-0.6,0.4-0.9,0.4c-0.4,0-0.6-0.2-0.6-0.6
		c0-0.1,0.7-1.2,2.7-2.6l-0.1-0.1c-9.7,0.3-13.8,3.8-13.9,4.7C365.5,136.4,365,136.7,375.5,139.1z"/>
	<path fill="#231F20" d="M399.6,146.3c-1.7,2.1-3.3,3-6.1,3c-1.6,1.6-3.4,2.8-5.8,2.8c-2,0-3.8-1.9-3.9-5.4
		c-0.1-2.8,1.3-4.7,3.4-6.3c2-1.7,4.7-2.7,7-2.8c0.8,0,2.1,0.3,2.1,1.4c0,0.6-0.5,0.8-0.9,1c1.1,0.3,1.4,1.1,1.4,2.2
		c0,1.7-0.8,3-1.5,4.4c1.6,0.3,2.7-1.1,3.9-2L399.6,146.3z M388.1,144.6c-0.8,0.8-1.5,2.3-1.5,3.5c0,1.1,0.7,1.4,1.7,1.4
		c1.2,0,2-0.7,2.9-1.5c-0.3-0.6-0.5-1.1-0.5-1.7c0-2,1.8-4.3,1.6-4.4C391,142.6,389.3,143.5,388.1,144.6z"/>
	<path fill="#231F20" d="M404.6,144.9c-0.8,0.6-1.5,1.2-1.5,2.2c0,0.9,0.9,2,2.9,2c2.9,0,6.1-2.6,8.3-4.3l0.5,1.5
		c-2.3,2.4-6.5,6.2-10.1,6.2c-2.9,0-4.3-2.7-4.3-5.5c0-3.2,1.1-4.3,3.6-6.2c1.7-1.3,5.3-3.3,7.4-3.3c1.2,0,1.7,0.6,1.7,1.7
		c0,2.1-3,5-4,5c-0.9,0-1.2-0.9-1.3-1.7L404.6,144.9z"/>
	<path fill="#231F20" d="M425.8,147.1c-1.7,2.1-5,5.4-7.8,5.4c-2.2,0-3.2-2.6-3.2-4.5c0-4.6,4.7-9,6.9-9c0.6,0,1.7,0.2,1.7,1
		c0,1.9-3.7,5.2-5.3,6.3c-0.3,1.5,0.3,2.4,2,2.4c2,0,3.9-2,5.4-3.1L425.8,147.1z M422.2,136.7c0-1.5,1.8-2.9,3.3-2.9
		c0.7,0,1.2,0.5,1.2,1.2c0,1.5-1.4,3.3-3,3.3C422.8,138.3,422.2,137.6,422.2,136.7z"/>
	<path fill="#231F20" d="M440.9,146.4c-2.3,2.7-6.4,6.2-10.1,6.2c-2.7,0-4-2.4-4.1-4.9c-0.2-4.9,5.3-9.9,10.2-9.9
		c1.2,0,2.7,0.3,2.7,1.8c0,1.8-1.8,4.6-9,7l-0.1,0.8c-0.1,1.4,1.1,1.9,2.3,1.9c2.7,0,5.8-2.7,7.8-4.3L440.9,146.4z M436.2,140.3
		c0-0.3-0.2-0.5-0.5-0.4c-1.9,0.5-4,2.3-5.1,4.8C434,143.6,436.3,141,436.2,140.3z"/>
	<path fill="#231F20" d="M454.7,136.3c-1.8,3.6-2.1,5-6.2,4.7c-1.3,1.6-3.4,4.7-3.4,7c0,0.8,0.3,1.3,1.1,1.3c1.2,0,2.6-1.1,6.5-3.9
		l0.2,1.7c-2.2,2-6.3,6-9.5,6c-1.5,0-2.4-1-2.4-2.5c0-1.2,0.5-2.7,1-3.8l-0.1-0.1l-1.9,1.5l-0.4-1.4c2.2-1.7,4.3-3.6,5.7-6
		c-2.3,0-1.6-0.2-3.6,0.1l0.4-0.7c2-3.3,2.3-3.9,6.3-4.1c1.1-1.5,2-3.3,4.1-3.3c0.5,0,1.2,0.1,1.2,0.7c0,0.7-1.1,1.9-1.5,2.4
		L454.7,136.3z"/>
	<path fill="#231F20" d="M460.1,158.2c-0.4,0.4-1.4,1.9-2,1.9c-0.8,0-1.1-1.8-1.1-2.5c0-0.6,0.7-1.8,1-2.2l5-8.5l-0.1-0.1
		c-3.1,2.6-5.8,4.6-6.3,4.6c-1-0.1-2.9-1.6-3-4.4c-0.1-4.5,6.3-9.3,7.3-9.3c0.6,0,1.6,1.2,1.6,1.7c0,1.4-4.2,5.3-5.5,6.3
		c-0.5,0.6-0.7,1.4-0.7,2.2c2-0.2,3.8-1.8,5.4-3.3c3.9-3.6,6.3-6.2,7-6.3c0.6-0.1,1,1.4,1,1.9c0,1-1,2.5-1.5,3.3l-5.6,8.3l0.1,0.1
		l8.3-7.4l0.3,1.4L460.1,158.2z"/>
</g>
<path fill="#B7B7B8" stroke="#D2D3D4" stroke-miterlimit="10" d="M856.6,293.9v-62.2h-6.4v-6.4h-9.6v8h-7v17.5h-4.5v-18.3h-5.8v-7.2
	h-9.6v5.6h-5.1v19.9h-3.2v12v4.8h-4.5v-8l-5.1-4h-12.1v-8.8l-5.1-2.4v-8.8h-4.5v-10.4h-20.5v4h-15.3v-42.8l-40,0v6.9h-8v6.4h-9.6v8
	h-7v17.9v49H659v9.6h-24.3v4.8l-5.8,7.2v-4l-5.1,4v-15.9H620v9.6h-42.8v6.4h-6.4v-8h-7.7v-31.9l-10.9-13.5l-9,11.2v38.2h-7h-6.4
	v-9.6h-6.4v8.8h-19.8v-10.4h-3.8v-8h-7v8h-10.9V266h-5.8v16.7h-5.8v-26.3c0,0-7-0.8-7.7,0c-0.6,0.8,0,4,0,4h-9v-12.7l-8.6,10.8V274
	v4.8c0,0-10.9-1.2-9.9,0c1,1.2,0-38.2,0-38.2s-14.7,0-15.3,0c-0.6,0-8.3,0-8.3,0V254h-19.8v19.1h-4.5v-8h-11.5v19.1h-7.7v-24.7
	h-16.6v9.6H347v6.4h-4.5v17.5h-6.4v-8.8h-7v-6.4h-3.8v-11.2h-12.1v9.6h-3.2v19.9h-6.4h-3.8V189.5c0,0-23.7-1.6-24.9,0
	c-1.3,1.6,0,106.8,0,106.8l-4.2-5.2h-4.8v-24.3h-6.4V258c0,0-21.1-0.8-21.1,0c0,0.8,0,21.5,0,21.5h-14.7c0,0,0,17.5,0,16.7
	c0-0.8-4.5,0-4.5,0l-6.4-8H205h-8.3v-20.7h-14.1h-12.1V227h-10.2h-17.9v4h-8.3v28.7h-9.6v3.2h-12.8v8H99.5v-14.3H65v9.6h-5.1v-7.2
	h-9.6H38.2v3.2c0,0-5.8,0-7.7,0c-1.9,0-4.2-5.2-4.2-5.2H15.8v4.4H0.4v-43h-17.3v8.8c0,0-9.6,0-13.4,0v32.7h-9.6V219h-17.9v34.3H-75
	v-32.7l-8.3-10.4h-3.8l-8.3,10.4v12H-107V219h-10.9v4.8c0,0-5.8-1.6-5.8,0c0,1.6,0,8.8,0,8.8h-3.2V258h-8.3h-8.3v62.2h1000V293.9z"
	/>
<path fill="#231F20" stroke="#D2D3D4" stroke-miterlimit="10" d="M-158.4,301.2v-42.1h5.4v-4.3h8.1v5.4h5.9v11.9h3.8v-12.4h4.9v-4.9
	h8.1v3.8h4.3v13.5h2.7v8.1v3.2h3.8V278l4.3-2.7h10.2v-5.9l4.3-1.6v-5.9h3.8v-7h17.3v2.7h12.9v-37.7h8.1v-6.5h4.3V209h18.3l3,3v21.3
	h6.7v4.3h8.1v5.4h5.9v12.1v33.2H8.2v6.5h20.5v3.2l4.9,4.9v-2.7l4.3,2.7V292h3.2v6.5h36.1v4.3h5.4v-5.4h6.5l16.7,2.7h5.9h5.4v-6.5
	h5.4v5.9h16.7v-7h3.2v-5.4h5.9v5.4h9.2v-10.2h4.9v11.3h4.9v-17.8c0,0,5.9-0.5,6.5,0c0.5,0.5,0,2.7,0,2.7h7.5v-8.6l7.3,7.3v10.5v3.2
	c0,0,9.2-0.8,8.4,0c-0.8,0.8,0-25.9,0-25.9s12.4,0,12.9,0c0.5,0,7,0,7,0v9.2h16.7v12.9h3.8v-5.4h9.7v12.9h6.5V278h14v6.5h3.8v4.3
	h3.8v11.9h5.4v-5.9h5.9v-4.3h3.2v-7.5h10.2v6.5h2.7v13.5h5.4h3.2v-72.2c0,0,19.9-1.1,21,0s0,72.2,0,72.2l3.5-3.5h4v-16.4h5.4v-5.9
	c0,0,17.8-0.5,17.8,0s0,14.6,0,14.6h12.4c0,0,0,11.9,0,11.3c0-0.5,3.8,0,3.8,0l5.4-5.4h6.5h7v-14h11.9h10.2v-27.5h8.6h15.1v2.7h7
	V278h8.1v2.2h10.8v5.4h10.2v-9.7H509v6.5h4.3v-4.9h8.1h10.2v2.2c0,0,4.9,0,6.5,0c1.6,0,3.5-3.5,3.5-3.5h8.9v3h12.9V250H578v5.9
	c0,0,8.1,0,11.3,0V278h8.1v-27.5h15.1v23.2h14.6v-22.1l7-7h3.2l7,7v8.1h9.7v-9.2h9.2v3.2c0,0,4.9-1.1,4.9,0c0,1.1,0,5.9,0,5.9h2.7
	v17.3h7h7V319h-843.2V301.2z"/>
<path fill="#231F20" stroke="#231F20" stroke-miterlimit="10" d="M730,254.8v-12.6h21.9V216h-1.7v-1.7h0.5v-1.9h0.9v-1.9h-0.6v-1.7
	h-0.8v-1.6h2.2v-20.6h-4.4v-9.4h2.3v-6.7h2.1V166h1.7c0,0-0.2-16.3,0-16.1c0.2,0.2,0.6,0,0.6,0v-7.4h-0.6v-1h0.6v-10.3h-0.7
	c0,0,0-1.1,0-0.9c0,0.2,0.7,0,0.7,0v-11.7h1v11.7h0.7v0.8c0,0-1,0-0.8,0c0.2,0,0,10.2,0,10.2v0.2h0.6v1.1h-0.7v7.3h0.8v16h1.7v4.7
	h2.3v6.8h2.5v9.4H758v20.4h2.4v1.5h-0.6v1.8h-1.2v1.9h1v1.9h0.7v1.5h-1.3c0,0-1.1,0-1,0c0.1,0,0,26.6,0,26.6h10.5v13H730V254.8z"/>
<path fill="#231F20" stroke="#000000" stroke-miterlimit="10" d="M539.8,295.1c2.5-0.2,4.5-3.8,6.7-5c1.7-0.9,3.9-1.2,5.8-1.7
	c4.3-1,8.7-1.6,13.3-1.6c4.9,0,9.6,0.8,14.4,0.5c4.3-0.2,8.9-1.6,13-3c5.9-1.9,11-4.7,16-8.3c3.5-2.5,7.3-5.4,11.4-6.9
	c7.8-2.8,19.2-0.6,26.9,0.5c9.5,1.4,18.7-6.2,27.4-8.8c9.1-2.8,18.6-5.7,28-7.5c11.5-2.2,23.7-3.2,35.7-3.7c5.4-0.2,11,0.1,16.3-1
	c5.6-1.2,10.7-3.2,16.4-3.5c5.1-0.3,8,2.1,12,4.8c4.3,3,9.2,6.4,14.2,8.3c6.3,2.3,13.3,1.9,19.4,4.5c5.3,2.3,10.2,5.5,14.4,9.5
	c4,3.8,5.4,9.3,10.1,12.4c4.8,3.3,10,5.8,14.9,9.1c4.8,3.2,8.5,7.2,11.8,11.7c2.5,3.4,8.1,5.9,9.8,9.6c0.3,0.6,0.6,0.9,0.7,1.6
	c-10,4.1-24.1,2.3-34.8,1.4c-12.1-1.1-24.3,0.8-36.4,0.8c-9.6,0-19.3-0.5-29-0.5c-26.5,0-53.2,1.1-79.7,2.2
	c-16.2,0.7-32.5,0.7-48.8,0.7c-14.7,0-29.2,1-43.9-0.5c-22.7-2.3-45.9,0.2-68.5-2.1c-3.2-0.3-6.4-0.6-9.6-1.1
	c-3.6-0.5-4.5-1.6-2.8-5.3c2.3-5.2,7-8.6,10.6-12.8c2.4-2.9,3.7-4,7-5.4c-0.2-0.3-0.4-0.1-0.8-0.2"/>
<g>
	<path fill="#010101" d="M75.5,278.2c2.6,0,11.9,0,11.9,0v3.7H74.9C74.9,281.9,75.1,281.5,75.5,278.2z"/>
	<polyline fill="#010101" points="78.5,224.8 87.1,224.8 87.1,221 78.7,221 78.5,224.7 	"/>
	<path fill="#010101" d="M87.3,218.1v-65.7h-7.5c0,10.9,0.1,42.6-1.1,65.7"/>
	<path fill="#010101" d="M87.3,149.5h-7.4c0,0,0-14.8,0-14.5c0,0.3,7.4,0,7.4,0"/>
	<path fill="#010101" d="M87.3,284.3c0,0,0.2,35.3,0,35.5c-0.2,0.2-16.4,0-16.4,0s3.3-30,4-35.5"/>
	<path fill="#010101" d="M88.6,121.6c0.2,0.3,2.9,0,2.9,0v198.5h-2.5"/>
	<path fill="#010101" d="M87.3,275.7V228h-9.1c-0.6,12.7-0.7,27.2-2.7,47.7"/>
	<path fill="#010101" d="M105.1,278.3c-2.6,0-11.9,0-11.9,0v3.7h12.4C105.7,282,105.5,281.6,105.1,278.3z"/>
	<path fill="#010101" d="M93.3,284.5c0,0-0.2,35.3,0,35.5c0.2,0.2,16.4,0,16.4,0s-3.3-30-4-35.5"/>
	<polyline fill="#010101" points="102.1,224.9 93.4,224.9 93.4,221.1 101.9,221.1 102.1,224.8 	"/>
	<path fill="#010101" d="M93.2,218.3v-65.7h7.5c0,10.9-0.1,42.6,1.1,65.7"/>
	<path fill="#010101" d="M93.2,149.6h7.4c0,0,0-14.8,0-14.5c0,0.3-7.4,0-7.4,0"/>
	<path fill="#010101" d="M93.2,275.8v-47.7h9.1c0.6,12.7,0.7,27.2,2.7,47.7"/>
</g>
<g>
	<path fill="#010101" d="M555.5,317.3c-0.6,0-6.3-126.4-6.3-126.4L533,317.3"/>
	<polyline fill="#010101" points="547.8,190.9 534.9,194 535.8,284.6 	"/>
	<path fill="#010101" d="M532.4,194.7c-0.2,0.6-6.7,122.6-6.7,122.6h11.6"/>
	<polygon fill="#010101" points="541.1,253.9 546.3,300.7 531.5,306.3 533.2,290.4 	"/>
</g>
<path fill="#010101" stroke="#939393" stroke-miterlimit="10" d="M188.8,320.9c-0.1-0.5-70.1,0-70.1,0c1-5.8,1.5-11.4,0.7-16.5
	c-6.7-2.3-12.9-5.1-15.9-12.2c1.3-1.6,13.2-0.2,21.8,0c-5.5-5.3-10.1-10.7-12.9-16.5c1.4,0,2.6-0.6,3.3-2.1c3.9,2.2,9.7,2.6,16.4,2
	c0.9-1.2,1.8-2.5,2.6-3.6l0.2-2.6c0.1-0.7,0.6-1.1,1.4-1.4l1.8,2.7c17.4,3.6,26,2.5,38.1,0.5l1.4-2.8c1.1-0.3,1.9-0.2,2.2,0.7
	l-0.2,2.5l2.6,3.9c4,2,9.2,0.9,14.5-0.7l3.4,2c-5.1,6.4-10,11.9-14.3,14.9c5.9,1.5,13.4,0.5,21.4-1.1c-3.8,7.2-9.3,11.9-16.8,13.8
	L188.8,320.9z"/>
<g>
	<path fill="#010101" d="M252.1,226c0,0,6.1-0.4,5.9,0c-0.2,0.4,0,31.2,0,31.2h-5.9V226z"/>
	<path fill="#010101" d="M244.5,256.3c-0.4,0.6,0-7.4,0-7.4h20.2v12l-19.4-0.9L244.5,256.3z"/>
	<polygon fill="#010101" points="236.4,318.6 243.2,318.6 242.4,229.6 251.4,227 257.2,227 266.7,231.6 266.7,318.6 272.7,318.6 
		272.7,229 254.5,220.4 236.4,226.1 	"/>
	<path fill="#010101" d="M241.4,252.1h26.9c0,0,0.8,66.2,0,66.2s-28,0-28,0"/>
</g>
<rect x="417.9" y="233.3" fill="#FFFFFF" width="57.2" height="90"/>
<line fill="none" stroke="#FFFFFF" stroke-miterlimit="10" x1="481.2" y1="301.2" x2="497.9" y2="317"/>
<path fill="#010101" d="M450.8,320c2-30.3,11.6-52.9,10.3-56c-1.4-3-20.6-7.7-16.3-17.2c1.2-3.1,6.9-4.6,10-5.6
	c1.5-0.3,4.5-1,7.7-1.7c-31-5-83.4-1.5-99.8,3.5c-6.8,3.7-7.1,7-5,11.6c2.6,4.5,5.8,3.5,6.4,7.5c1.4,7.1-10.5,63.4-11.3,57.9"/>
<g>
	<path fill="none" stroke="#8C8C8C" stroke-miterlimit="10" d="M368.2,256.5c-0.4-1.5,74.7-4.5,74.7-3"/>
	<path fill="none" stroke="#8C8C8C" stroke-miterlimit="10" d="M379.6,260.1c18.4-1.4,38.8-2.1,60.3-2.3"/>
	<line fill="none" stroke="#8C8C8C" stroke-miterlimit="10" x1="384.3" y1="263.8" x2="447.8" y2="260.8"/>
	<line fill="none" stroke="#8C8C8C" stroke-miterlimit="10" x1="405.5" y1="267.7" x2="450.9" y2="265.9"/>
	<line fill="none" stroke="#8C8C8C" stroke-miterlimit="10" x1="406.5" y1="272.1" x2="442.9" y2="271.2"/>
	<line fill="none" stroke="#8C8C8C" stroke-miterlimit="10" x1="441.8" y1="276.9" x2="406.5" y2="277.6"/>
	<path fill="none" stroke="#8C8C8C" stroke-miterlimit="10" d="M405.5,284.2c0.1,0.7,36.3-0.5,36.3-0.5"/>
	<path fill="none" stroke="#8C8C8C" stroke-miterlimit="10" d="M404.8,292.2c0.2,0.5,36-0.3,35.5,0"/>
	<line fill="none" stroke="#8C8C8C" stroke-miterlimit="10" x1="405.5" y1="299.3" x2="440.3" y2="299.9"/>
	<path fill="none" stroke="#8C8C8C" stroke-miterlimit="10" d="M404.8,308.7c-0.1,0.4,35.7,0.8,35.1,0.8"/>
	<path fill="none" stroke="#8C8C8C" stroke-miterlimit="10" d="M435,319.2c5.8-50.6,19.3-45.4,17.1-55.4"/>
	<path fill="none" stroke="#8C8C8C" stroke-miterlimit="10" d="M426.2,312.7c3.8-33.9,16.2-41.4,16.7-48.1
		c0.4-7.7-20.6-2.6-7.9-17.1"/>
	<path fill="none" stroke="#8C8C8C" stroke-miterlimit="10" d="M407.7,312.7c3.8-33.9,16.2-41.4,16.7-48.1
		c0.4-7.7-20.6-2.6-7.9-17.1"/>
	<path fill="none" stroke="#8C8C8C" stroke-miterlimit="10" d="M416.3,312.7c3.8-33.9,16.2-41.4,16.7-48.1
		c0.4-7.7-20.6-2.6-7.9-17.1"/>
	<path fill="none" stroke="#8C8C8C" stroke-miterlimit="10" d="M404.4,284.4c4.6-11.1,9.6-15.6,9.9-19.8c0.4-7.7-20.6-2.6-7.9-17.1"
		/>
	<path fill="none" stroke="#8C8C8C" stroke-miterlimit="10" d="M404.1,268.8c0.8-1.5,1.4-2.9,1.5-4.2c0.4-7.7-20.6-2.6-7.9-17.1"/>
	<path fill="none" stroke="#8C8C8C" stroke-miterlimit="10" d="M394.8,270.2c0.8-1.5,1.4-2.9,1.5-4.2c0.4-7.7-20.6-2.6-7.9-17.1"/>
	<path fill="none" stroke="#8C8C8C" stroke-miterlimit="10" d="M385,272.1c0.8-1.5,1.4-2.9,1.5-4.2c0.4-7.7-20.6-2.6-7.9-17.1"/>
</g>
<path fill="#010101" d="M451.6,320.4c-0.2-20.6,11.1-53.3,10.9-57.1c-0.1-1.3-20.2-7.6-15.2-15.8c0.8-3,14.7-7.9,19.3-7.4
	c8.8-0.2,30.2,7.9,30.2,7.9l7.9,72.4H451.6z"/>
<path fill="none" stroke="#A5A5A5" stroke-miterlimit="10" d="M475.8,257.7c0,0-4.5,63.7-2.7,63.2l-0.6,0l27.2-38.6l-20-17.1
	l14.1,2.3l-19.1,14.8h25"/>
<line fill="none" stroke="#A5A5A5" stroke-miterlimit="10" x1="502.9" y1="320.1" x2="488.1" y2="298.9"/>
<rect x="-17.9" y="313" fill="#FFFFFF" width="915" height="171"/>
<rect x="815" y="-24" fill="#FFFFFF" width="184.6" height="369.2"/>
</svg>
